<svg width="20" height="20" viewBox="0 0 20 20" fill="none" xmlns="http://www.w3.org/2000/svg">
<path fill-rule="evenodd" clip-rule="evenodd" d="M13.0709 3.19287C13.8 2.34788 14.2914 1.17098 14.1569 0C13.1063 0.04 11.8352 0.671147 11.0819 1.51514C10.4054 2.26413 9.81484 3.4609 9.97359 4.60889C11.1456 4.69588 12.3418 4.03885 13.0709 3.19287ZM15.699 10.625C15.7283 13.652 18.4697 14.6589 18.5 14.6719C18.4778 14.7429 18.0622 16.1066 17.056 17.5166C16.1854 18.7346 15.2824 19.9476 13.8596 19.9736C12.4621 19.9986 12.0122 19.1797 10.4135 19.1797C8.81577 19.1797 8.31624 19.9475 6.9936 19.9985C5.62039 20.0475 4.5738 18.6808 3.6971 17.4668C1.90323 14.9838 0.533065 10.4501 2.37344 7.39014C3.28756 5.87116 4.92064 4.90779 6.69428 4.88379C8.04221 4.85879 9.31531 5.75293 10.1394 5.75293C10.9636 5.75293 12.5107 4.67794 14.1367 4.83594C14.8172 4.86294 16.7284 5.09885 17.955 6.81982C17.8559 6.87882 15.6747 8.09504 15.699 10.625Z" fill="black"/>
</svg>
