<svg width="20" height="20" viewBox="0 0 20 20" fill="none" xmlns="http://www.w3.org/2000/svg">
<path d="M18.7505 10.1941C18.7505 9.47471 18.6909 8.94971 18.562 8.40527H10.179V11.6525H15.0997C15.0005 12.4595 14.4647 13.6747 13.2742 14.4913L13.2575 14.6001L15.9081 16.6123L16.0917 16.6303C17.7782 15.1039 18.7505 12.858 18.7505 10.1941Z" fill="#4285F4"/>
<path d="M10.1792 18.75C12.5898 18.75 14.6136 17.9722 16.0918 16.6305L13.2743 14.4915C12.5204 15.0068 11.5085 15.3665 10.1792 15.3665C7.81809 15.3665 5.81412 13.8402 5.09977 11.7305L4.99507 11.7392L2.23902 13.8295L2.20297 13.9277C3.67121 16.786 6.68709 18.75 10.1792 18.75Z" fill="#34A853"/>
<path d="M5.09977 11.7307C4.91129 11.1863 4.8022 10.6029 4.8022 10.0002C4.8022 9.39737 4.91129 8.81406 5.08985 8.26962L5.08486 8.15362L2.29427 6.02979L2.20297 6.07235C1.59784 7.2585 1.25061 8.59043 1.25061 10.0002C1.25061 11.4099 1.59784 12.7418 2.20297 13.9279L5.09977 11.7307Z" fill="#FBBC05"/>
<path d="M10.1792 4.63331C11.8558 4.63331 12.9867 5.34303 13.6316 5.93612L16.1514 3.525C14.6038 2.11528 12.5899 1.25 10.1792 1.25C6.68709 1.25 3.67122 3.21388 2.20297 6.07218L5.08987 8.26944C5.81415 6.15972 7.81809 4.63331 10.1792 4.63331Z" fill="#EB4335"/>
</svg>
