<svg width="24" height="24" viewBox="0 0 24 24" fill="none" xmlns="http://www.w3.org/2000/svg">
<path d="M5.63378 5.63371C5.24509 5.24502 4.61053 5.24218 4.26211 5.66733C2.84856 7.39216 2 9.59755 2 11.9999C2 14.4023 2.84856 16.6077 4.26211 18.3325C4.61053 18.7577 5.24509 18.7548 5.63378 18.3662C6.02342 17.9765 6.01656 17.3478 5.67758 16.9133C4.62373 15.5627 4 13.8584 4 11.9999C4 10.1496 4.62385 8.43955 5.6779 7.08679C6.01658 6.65213 6.02342 6.02335 5.63378 5.63371ZM19.7379 5.66733C19.3895 5.24218 18.7549 5.24502 18.3662 5.63371C17.9766 6.02335 17.9834 6.65213 18.3221 7.08679C19.3761 8.43955 20 10.1496 20 11.9999C20 13.8584 19.3763 15.5627 18.3224 16.9133C17.9834 17.3478 17.9766 17.9765 18.3662 18.3662C18.7549 18.7548 19.3895 18.7577 19.7379 18.3325C21.1514 16.6077 22 14.4023 22 11.9999C22 9.59755 21.1514 7.39216 19.7379 5.66733ZM8.465 8.46493C8.07564 8.07557 7.43629 8.07171 7.116 8.51961C6.41221 9.50378 6 10.7057 6 11.9999C6 13.2942 6.41221 14.4961 7.116 15.4803C7.43629 15.9282 8.07564 15.9243 8.465 15.5349C8.85436 15.1456 8.84094 14.5182 8.55962 14.0448C8.20499 13.4482 8 12.7491 8 11.9999C8 11.2508 8.20499 10.5517 8.55962 9.95502C8.84094 9.48167 8.85436 8.85429 8.465 8.46493ZM16.884 8.51961C16.5637 8.07171 15.9244 8.07557 15.535 8.46493C15.1456 8.85429 15.1591 9.48167 15.4404 9.95502C15.795 10.5517 16 11.2508 16 11.9999C16 12.7491 15.795 13.4482 15.4404 14.0448C15.1591 14.5182 15.1456 15.1456 15.535 15.5349C15.9244 15.9243 16.5637 15.9282 16.884 15.4803C17.5878 14.4961 18 13.2942 18 11.9999C18 10.7057 17.5878 9.50378 16.884 8.51961ZM12 9.99993C11.4696 9.99993 10.9609 10.2106 10.5858 10.5857C10.2107 10.9608 10 11.4695 10 11.9999C10 12.5304 10.2107 13.0391 10.5858 13.4141C10.9609 13.7892 11.4696 13.9999 12 13.9999C12.5304 13.9999 13.0391 13.7892 13.4142 13.4141C13.7893 13.0391 14 12.5304 14 11.9999C14 11.4695 13.7893 10.9608 13.4142 10.5857C13.0391 10.2106 12.5304 9.99993 12 9.99993Z" fill="white"/>
<path d="M13.6563 10.4511C14.5521 11.1088 15 11.4376 15 12C15 12.5624 14.5521 12.8912 13.6563 13.5489C13.4091 13.7304 13.1638 13.9014 12.9384 14.0438C12.7407 14.1688 12.5168 14.298 12.2849 14.4249C11.3913 14.914 10.9444 15.1586 10.5437 14.8878C10.1429 14.617 10.1065 14.0502 10.0337 12.9166C10.0131 12.596 10 12.2817 10 12C10 11.7183 10.0131 11.404 10.0337 11.0834C10.1065 9.94977 10.1429 9.38296 10.5437 9.1122C10.9444 8.84144 11.3913 9.08599 12.2849 9.57509C12.5168 9.70198 12.7407 9.83123 12.9384 9.95619C13.1638 10.0986 13.4091 10.2696 13.6563 10.4511Z" fill="white"/>
</svg>
